<?xml version="1.0" standalone="no"?>
<!DOCTYPE svg PUBLIC "-//W3C//DTD SVG 20010904//EN"
 "http://www.w3.org/TR/2001/REC-SVG-20010904/DTD/svg10.dtd">
<svg version="1.0" xmlns="http://www.w3.org/2000/svg"
 width="700.000000pt" height="700.000000pt" viewBox="0 0 700.000000 700.000000"
 preserveAspectRatio="xMidYMid meet">
<metadata>
Created by potrace 1.11, written by Peter Selinger 2001-2013
</metadata>
<g transform="translate(0.000000,700.000000) scale(0.100000,-0.100000)"
fill="#000000" stroke="none">
<path d="M1755 6503 c-952 -272 -1736 -496 -1743 -498 -9 -3 -12 -63 -12 -255
l0 -251 23 7 c12 4 105 31 207 60 102 29 289 82 415 119 127 36 237 68 245 70
8 2 96 26 195 55 99 28 241 69 315 90 74 21 326 93 560 160 234 67 486 139
560 160 74 21 325 93 558 159 l422 121 1118 -319 c1955 -559 2344 -670 2363
-676 18 -6 19 3 19 244 l0 250 -67 20 c-125 37 -388 112 -403 116 -8 2 -260
74 -560 160 -300 86 -552 158 -560 160 -8 2 -211 59 -450 128 -239 68 -478
136 -530 151 -52 15 -268 77 -480 137 -212 61 -392 112 -400 114 -8 2 -26 5
-40 8 -16 3 -674 -180 -1755 -490z"/>
<path d="M1759 5216 c-2 -2 -26 -7 -54 -11 -58 -7 -134 -25 -155 -35 -13 -7
-15 -189 -13 -1557 0 -851 2 -1550 2 -1553 1 -3 18 -5 39 -6 255 -7 495 -64
727 -174 372 -177 636 -478 767 -875 16 -49 31 -92 33 -93 2 -2 3 726 3 1619
l0 1622 -45 86 c-67 129 -149 248 -288 419 -37 46 -203 207 -265 258 -153 125
-374 245 -492 268 -13 2 -41 8 -63 13 -22 5 -71 11 -110 12 -38 1 -72 4 -76 6
-3 3 -8 3 -10 1z"/>
<path d="M5175 5159 c-107 -12 -165 -19 -218 -30 -28 -6 -63 -13 -77 -15 -355
-70 -837 -271 -1210 -507 -77 -49 -280 -194 -330 -236 l-35 -30 0 -1640 c-1
-903 1 -1641 3 -1641 7 0 120 84 156 115 6 6 38 28 71 50 33 22 62 43 63 48 2
4 10 7 17 7 7 0 15 3 17 8 5 11 66 52 78 52 5 0 10 5 10 10 0 6 4 10 9 10 5 0
65 34 134 74 293 175 647 328 972 421 94 27 275 70 335 79 19 3 46 8 60 11 60
12 79 15 140 21 36 4 71 7 78 7 6 0 13 5 13 11 1 6 2 721 3 1589 1 1042 -2
1581 -9 1587 -11 9 -190 9 -280 -1z"/>
<path d="M752 3027 l3 -1751 460 -152 c253 -83 782 -258 1176 -388 l716 -236
394 0 394 0 185 61 c102 33 194 64 205 69 11 4 243 81 515 170 272 89 709 233
970 319 l475 157 3 1751 2 1751 -187 -75 c-104 -41 -192 -79 -197 -83 -5 -5
-9 -650 -9 -1554 0 -1134 -2 -1548 -11 -1554 -6 -5 -36 -16 -66 -26 -30 -10
-181 -57 -335 -106 -154 -48 -374 -118 -490 -155 -115 -37 -217 -69 -225 -71
-22 -5 -564 -178 -708 -225 l-124 -40 -66 19 c-201 59 -424 62 -631 8 l-95
-24 -75 52 c-179 125 -420 260 -626 351 -66 29 -301 122 -330 131 -5 2 -57 19
-115 39 -85 29 -392 116 -459 130 -158 33 -266 55 -306 62 l-50 8 -1 1473 c0
867 -5 1476 -10 1482 -5 4 -93 42 -197 83 l-187 75 2 -1751z"/>
</g>
</svg>
